<svg width="24" height="25" viewBox="0 0 24 25" fill="none" xmlns="http://www.w3.org/2000/svg">
<path d="M21.6029 11.8275C21.8585 12.1491 22 12.5668 22 13C22 13.4332 21.8585 13.851 21.6029 14.1725C19.9845 16.15 16.3005 20 12 20C7.69952 20 4.01559 16.15 2.39712 14.1725C2.1415 13.851 2 13.4332 2 13C2 12.5668 2.1415 12.1491 2.39712 11.8275C4.01559 9.85 7.69952 6 12 6C16.3005 6 19.9845 9.85 21.6029 11.8275Z" stroke="#FFD11A" stroke-width="1.5" stroke-linecap="round" stroke-linejoin="round"/>
<path d="M12.0005 16.1109C13.7031 16.1109 15.0833 14.7181 15.0833 12.9999C15.0833 11.2817 13.7031 9.88879 12.0005 9.88879C10.2979 9.88879 8.91772 11.2817 8.91772 12.9999C8.91772 14.7181 10.2979 16.1109 12.0005 16.1109Z" stroke="#FFD11A" stroke-width="1.5" stroke-linecap="round" stroke-linejoin="round"/>
</svg>
